<mxfile host="Electron" agent="Mozilla/5.0 (Windows NT 10.0; Win64; x64) AppleWebKit/537.36 (KHTML, like Gecko) draw.io/24.7.5 Chrome/126.0.6478.183 Electron/31.3.0 Safari/537.36" version="24.7.5">
  <diagram name="Page-1" id="PA7CLsYwAkyR0QqU_wsc">
    <mxGraphModel dx="1050" dy="621" grid="1" gridSize="10" guides="1" tooltips="1" connect="1" arrows="1" fold="1" page="1" pageScale="1" pageWidth="1100" pageHeight="850" math="0" shadow="0">
      <root>
        <mxCell id="0" />
        <mxCell id="1" parent="0" />
        <mxCell id="-19ChBlsM_4fLCwKDxYv-2" value="Produccion" style="text;html=1;align=center;verticalAlign=middle;whiteSpace=wrap;rounded=0;" vertex="1" parent="1">
          <mxGeometry x="160" y="240" width="60" height="30" as="geometry" />
        </mxCell>
        <mxCell id="-19ChBlsM_4fLCwKDxYv-3" value="Master" style="text;html=1;align=center;verticalAlign=middle;whiteSpace=wrap;rounded=0;" vertex="1" parent="1">
          <mxGeometry x="160" y="370" width="60" height="30" as="geometry" />
        </mxCell>
        <mxCell id="-19ChBlsM_4fLCwKDxYv-4" value="Feature" style="text;html=1;align=center;verticalAlign=middle;whiteSpace=wrap;rounded=0;" vertex="1" parent="1">
          <mxGeometry x="160" y="425" width="60" height="30" as="geometry" />
        </mxCell>
        <mxCell id="-19ChBlsM_4fLCwKDxYv-5" value="Pre Produccion" style="text;html=1;align=center;verticalAlign=middle;whiteSpace=wrap;rounded=0;" vertex="1" parent="1">
          <mxGeometry x="160" y="300" width="60" height="30" as="geometry" />
        </mxCell>
        <mxCell id="-19ChBlsM_4fLCwKDxYv-6" value="Hotfix" style="text;html=1;align=center;verticalAlign=middle;whiteSpace=wrap;rounded=0;" vertex="1" parent="1">
          <mxGeometry x="160" y="183" width="60" height="30" as="geometry" />
        </mxCell>
        <mxCell id="-19ChBlsM_4fLCwKDxYv-7" value="" style="endArrow=none;html=1;rounded=0;exitX=1;exitY=0.5;exitDx=0;exitDy=0;" edge="1" parent="1" source="-19ChBlsM_4fLCwKDxYv-30">
          <mxGeometry width="50" height="50" relative="1" as="geometry">
            <mxPoint x="240.00000000000009" y="320.21000000000004" as="sourcePoint" />
            <mxPoint x="811.6" y="320" as="targetPoint" />
          </mxGeometry>
        </mxCell>
        <mxCell id="-19ChBlsM_4fLCwKDxYv-8" value="" style="endArrow=none;html=1;rounded=0;exitX=1;exitY=0.5;exitDx=0;exitDy=0;" edge="1" parent="1" source="-19ChBlsM_4fLCwKDxYv-32">
          <mxGeometry width="50" height="50" relative="1" as="geometry">
            <mxPoint x="240" y="260" as="sourcePoint" />
            <mxPoint x="812" y="260" as="targetPoint" />
          </mxGeometry>
        </mxCell>
        <mxCell id="-19ChBlsM_4fLCwKDxYv-9" value="" style="endArrow=none;html=1;rounded=0;exitX=1;exitY=0.5;exitDx=0;exitDy=0;" edge="1" parent="1" source="-19ChBlsM_4fLCwKDxYv-20">
          <mxGeometry width="50" height="50" relative="1" as="geometry">
            <mxPoint x="230" y="380" as="sourcePoint" />
            <mxPoint x="812" y="380" as="targetPoint" />
          </mxGeometry>
        </mxCell>
        <mxCell id="-19ChBlsM_4fLCwKDxYv-10" value="" style="endArrow=none;html=1;rounded=0;exitX=1;exitY=0.5;exitDx=0;exitDy=0;strokeColor=#0000FF;" edge="1" parent="1" source="-19ChBlsM_4fLCwKDxYv-15">
          <mxGeometry width="50" height="50" relative="1" as="geometry">
            <mxPoint x="240" y="500" as="sourcePoint" />
            <mxPoint x="812" y="500" as="targetPoint" />
          </mxGeometry>
        </mxCell>
        <mxCell id="-19ChBlsM_4fLCwKDxYv-11" value="Repositorio Local" style="text;html=1;align=center;verticalAlign=middle;whiteSpace=wrap;rounded=0;" vertex="1" parent="1">
          <mxGeometry x="160" y="480" width="60" height="30" as="geometry" />
        </mxCell>
        <mxCell id="-19ChBlsM_4fLCwKDxYv-12" value="" style="endArrow=none;html=1;rounded=0;exitX=1.14;exitY=0.507;exitDx=0;exitDy=0;exitPerimeter=0;" edge="1" parent="1" source="-19ChBlsM_4fLCwKDxYv-37">
          <mxGeometry width="50" height="50" relative="1" as="geometry">
            <mxPoint x="240" y="440" as="sourcePoint" />
            <mxPoint x="812" y="440" as="targetPoint" />
          </mxGeometry>
        </mxCell>
        <mxCell id="-19ChBlsM_4fLCwKDxYv-16" value="" style="endArrow=none;html=1;rounded=0;exitX=1.14;exitY=0.507;exitDx=0;exitDy=0;exitPerimeter=0;strokeColor=#0000FF;" edge="1" parent="1" target="-19ChBlsM_4fLCwKDxYv-15">
          <mxGeometry width="50" height="50" relative="1" as="geometry">
            <mxPoint x="240" y="500" as="sourcePoint" />
            <mxPoint x="812" y="500" as="targetPoint" />
          </mxGeometry>
        </mxCell>
        <mxCell id="-19ChBlsM_4fLCwKDxYv-15" value="" style="ellipse;whiteSpace=wrap;html=1;" vertex="1" parent="1">
          <mxGeometry x="330" y="480" width="40" height="40" as="geometry" />
        </mxCell>
        <mxCell id="-19ChBlsM_4fLCwKDxYv-19" value="" style="endArrow=classic;html=1;rounded=0;entryX=0;entryY=0;entryDx=0;entryDy=0;exitX=1;exitY=1;exitDx=0;exitDy=0;" edge="1" parent="1" source="-19ChBlsM_4fLCwKDxYv-20" target="-19ChBlsM_4fLCwKDxYv-15">
          <mxGeometry width="50" height="50" relative="1" as="geometry">
            <mxPoint x="270" y="420" as="sourcePoint" />
            <mxPoint x="560" y="300" as="targetPoint" />
          </mxGeometry>
        </mxCell>
        <mxCell id="-19ChBlsM_4fLCwKDxYv-21" value="" style="endArrow=none;html=1;rounded=0;exitX=1.14;exitY=0.507;exitDx=0;exitDy=0;exitPerimeter=0;" edge="1" parent="1" target="-19ChBlsM_4fLCwKDxYv-20">
          <mxGeometry width="50" height="50" relative="1" as="geometry">
            <mxPoint x="240" y="380" as="sourcePoint" />
            <mxPoint x="812" y="380" as="targetPoint" />
          </mxGeometry>
        </mxCell>
        <mxCell id="-19ChBlsM_4fLCwKDxYv-22" value="" style="endArrow=none;html=1;rounded=0;" edge="1" parent="1" target="-19ChBlsM_4fLCwKDxYv-20">
          <mxGeometry width="50" height="50" relative="1" as="geometry">
            <mxPoint x="240" y="380" as="sourcePoint" />
            <mxPoint x="812" y="380" as="targetPoint" />
          </mxGeometry>
        </mxCell>
        <mxCell id="-19ChBlsM_4fLCwKDxYv-20" value="" style="ellipse;whiteSpace=wrap;html=1;" vertex="1" parent="1">
          <mxGeometry x="260" y="360" width="40" height="40" as="geometry" />
        </mxCell>
        <mxCell id="-19ChBlsM_4fLCwKDxYv-23" value="" style="endArrow=classic;html=1;rounded=0;exitX=1;exitY=0;exitDx=0;exitDy=0;entryX=0;entryY=1;entryDx=0;entryDy=0;" edge="1" parent="1" source="-19ChBlsM_4fLCwKDxYv-15" target="-19ChBlsM_4fLCwKDxYv-24">
          <mxGeometry width="50" height="50" relative="1" as="geometry">
            <mxPoint x="260" y="400" as="sourcePoint" />
            <mxPoint x="370" y="420" as="targetPoint" />
          </mxGeometry>
        </mxCell>
        <mxCell id="-19ChBlsM_4fLCwKDxYv-24" value="" style="ellipse;whiteSpace=wrap;html=1;" vertex="1" parent="1">
          <mxGeometry x="390" y="420" width="40" height="40" as="geometry" />
        </mxCell>
        <mxCell id="-19ChBlsM_4fLCwKDxYv-27" value="" style="ellipse;whiteSpace=wrap;html=1;" vertex="1" parent="1">
          <mxGeometry x="450" y="360" width="40" height="40" as="geometry" />
        </mxCell>
        <mxCell id="-19ChBlsM_4fLCwKDxYv-28" value="" style="endArrow=classic;html=1;rounded=0;exitX=1;exitY=0;exitDx=0;exitDy=0;entryX=0;entryY=1;entryDx=0;entryDy=0;dashed=1;" edge="1" parent="1" source="-19ChBlsM_4fLCwKDxYv-24" target="-19ChBlsM_4fLCwKDxYv-27">
          <mxGeometry width="50" height="50" relative="1" as="geometry">
            <mxPoint x="450" y="390" as="sourcePoint" />
            <mxPoint x="500" y="340" as="targetPoint" />
          </mxGeometry>
        </mxCell>
        <mxCell id="-19ChBlsM_4fLCwKDxYv-29" value="" style="endArrow=classic;html=1;rounded=0;entryX=0.249;entryY=0.931;entryDx=0;entryDy=0;entryPerimeter=0;exitX=1;exitY=0;exitDx=0;exitDy=0;" edge="1" parent="1" source="-19ChBlsM_4fLCwKDxYv-27" target="-19ChBlsM_4fLCwKDxYv-30">
          <mxGeometry width="50" height="50" relative="1" as="geometry">
            <mxPoint x="440" y="390" as="sourcePoint" />
            <mxPoint x="500" y="340" as="targetPoint" />
          </mxGeometry>
        </mxCell>
        <mxCell id="-19ChBlsM_4fLCwKDxYv-31" value="" style="endArrow=none;html=1;rounded=0;exitX=1.14;exitY=0.507;exitDx=0;exitDy=0;exitPerimeter=0;" edge="1" parent="1" source="-19ChBlsM_4fLCwKDxYv-49" target="-19ChBlsM_4fLCwKDxYv-30">
          <mxGeometry width="50" height="50" relative="1" as="geometry">
            <mxPoint x="240.00000000000009" y="320.21000000000004" as="sourcePoint" />
            <mxPoint x="811.6" y="320" as="targetPoint" />
          </mxGeometry>
        </mxCell>
        <mxCell id="-19ChBlsM_4fLCwKDxYv-30" value="" style="ellipse;whiteSpace=wrap;html=1;" vertex="1" parent="1">
          <mxGeometry x="500" y="300" width="40" height="40" as="geometry" />
        </mxCell>
        <mxCell id="-19ChBlsM_4fLCwKDxYv-34" value="" style="endArrow=classic;html=1;rounded=0;entryX=0.166;entryY=0.956;entryDx=0;entryDy=0;entryPerimeter=0;exitX=1;exitY=0;exitDx=0;exitDy=0;" edge="1" parent="1" source="-19ChBlsM_4fLCwKDxYv-30" target="-19ChBlsM_4fLCwKDxYv-32">
          <mxGeometry width="50" height="50" relative="1" as="geometry">
            <mxPoint x="494" y="376" as="sourcePoint" />
            <mxPoint x="520" y="347" as="targetPoint" />
          </mxGeometry>
        </mxCell>
        <mxCell id="-19ChBlsM_4fLCwKDxYv-35" value="" style="endArrow=none;html=1;rounded=0;exitX=1.14;exitY=0.507;exitDx=0;exitDy=0;exitPerimeter=0;" edge="1" parent="1" source="-19ChBlsM_4fLCwKDxYv-46" target="-19ChBlsM_4fLCwKDxYv-32">
          <mxGeometry width="50" height="50" relative="1" as="geometry">
            <mxPoint x="240" y="260" as="sourcePoint" />
            <mxPoint x="812" y="260" as="targetPoint" />
          </mxGeometry>
        </mxCell>
        <mxCell id="-19ChBlsM_4fLCwKDxYv-32" value="" style="ellipse;whiteSpace=wrap;html=1;" vertex="1" parent="1">
          <mxGeometry x="550" y="240" width="40" height="40" as="geometry" />
        </mxCell>
        <mxCell id="-19ChBlsM_4fLCwKDxYv-36" value="Tag: 1.0" style="text;html=1;align=center;verticalAlign=middle;whiteSpace=wrap;rounded=0;" vertex="1" parent="1">
          <mxGeometry x="540" y="210" width="60" height="30" as="geometry" />
        </mxCell>
        <mxCell id="-19ChBlsM_4fLCwKDxYv-38" value="" style="endArrow=none;html=1;rounded=0;exitX=1.14;exitY=0.507;exitDx=0;exitDy=0;exitPerimeter=0;" edge="1" parent="1" target="-19ChBlsM_4fLCwKDxYv-37">
          <mxGeometry width="50" height="50" relative="1" as="geometry">
            <mxPoint x="240" y="440" as="sourcePoint" />
            <mxPoint x="812" y="440" as="targetPoint" />
            <Array as="points">
              <mxPoint x="410" y="440" />
            </Array>
          </mxGeometry>
        </mxCell>
        <mxCell id="-19ChBlsM_4fLCwKDxYv-37" value="x" style="text;html=1;align=center;verticalAlign=middle;whiteSpace=wrap;rounded=0;fontSize=30;" vertex="1" parent="1">
          <mxGeometry x="610" y="425" width="60" height="30" as="geometry" />
        </mxCell>
        <mxCell id="-19ChBlsM_4fLCwKDxYv-39" value="" style="endArrow=classic;html=1;rounded=0;entryX=0.5;entryY=0;entryDx=0;entryDy=0;exitX=0.702;exitY=1.069;exitDx=0;exitDy=0;exitPerimeter=0;dashed=1;" edge="1" parent="1" source="-19ChBlsM_4fLCwKDxYv-32" target="-19ChBlsM_4fLCwKDxYv-37">
          <mxGeometry width="50" height="50" relative="1" as="geometry">
            <mxPoint x="410" y="380" as="sourcePoint" />
            <mxPoint x="460" y="330" as="targetPoint" />
          </mxGeometry>
        </mxCell>
        <mxCell id="-19ChBlsM_4fLCwKDxYv-40" value="" style="endArrow=none;html=1;rounded=0;exitX=1.14;exitY=0.507;exitDx=0;exitDy=0;exitPerimeter=0;" edge="1" parent="1" source="-19ChBlsM_4fLCwKDxYv-51">
          <mxGeometry width="50" height="50" relative="1" as="geometry">
            <mxPoint x="239" y="199.66" as="sourcePoint" />
            <mxPoint x="779" y="200" as="targetPoint" />
          </mxGeometry>
        </mxCell>
        <mxCell id="-19ChBlsM_4fLCwKDxYv-42" value="" style="endArrow=classic;html=1;rounded=0;entryX=0;entryY=1;entryDx=0;entryDy=0;exitX=1;exitY=0;exitDx=0;exitDy=0;" edge="1" parent="1" source="-19ChBlsM_4fLCwKDxYv-43" target="-19ChBlsM_4fLCwKDxYv-41">
          <mxGeometry width="50" height="50" relative="1" as="geometry">
            <mxPoint x="350" y="290" as="sourcePoint" />
            <mxPoint x="460" y="330" as="targetPoint" />
          </mxGeometry>
        </mxCell>
        <mxCell id="-19ChBlsM_4fLCwKDxYv-44" value="" style="endArrow=none;html=1;rounded=0;exitX=1.14;exitY=0.507;exitDx=0;exitDy=0;exitPerimeter=0;" edge="1" parent="1" target="-19ChBlsM_4fLCwKDxYv-43">
          <mxGeometry width="50" height="50" relative="1" as="geometry">
            <mxPoint x="240" y="260" as="sourcePoint" />
            <mxPoint x="550" y="260" as="targetPoint" />
          </mxGeometry>
        </mxCell>
        <mxCell id="-19ChBlsM_4fLCwKDxYv-43" value="" style="ellipse;whiteSpace=wrap;html=1;" vertex="1" parent="1">
          <mxGeometry x="260" y="240" width="40" height="40" as="geometry" />
        </mxCell>
        <mxCell id="-19ChBlsM_4fLCwKDxYv-45" value="" style="endArrow=none;html=1;rounded=0;" edge="1" parent="1" target="-19ChBlsM_4fLCwKDxYv-41">
          <mxGeometry width="50" height="50" relative="1" as="geometry">
            <mxPoint x="241" y="198" as="sourcePoint" />
            <mxPoint x="779" y="200" as="targetPoint" />
          </mxGeometry>
        </mxCell>
        <mxCell id="-19ChBlsM_4fLCwKDxYv-41" value="" style="ellipse;whiteSpace=wrap;html=1;" vertex="1" parent="1">
          <mxGeometry x="310" y="178" width="40" height="40" as="geometry" />
        </mxCell>
        <mxCell id="-19ChBlsM_4fLCwKDxYv-47" value="" style="endArrow=classic;html=1;rounded=0;exitX=1;exitY=1;exitDx=0;exitDy=0;entryX=0;entryY=0;entryDx=0;entryDy=0;" edge="1" parent="1" source="-19ChBlsM_4fLCwKDxYv-41" target="-19ChBlsM_4fLCwKDxYv-46">
          <mxGeometry width="50" height="50" relative="1" as="geometry">
            <mxPoint x="410" y="380" as="sourcePoint" />
            <mxPoint x="380" y="240" as="targetPoint" />
          </mxGeometry>
        </mxCell>
        <mxCell id="-19ChBlsM_4fLCwKDxYv-48" value="" style="endArrow=classic;html=1;rounded=0;entryX=0;entryY=0;entryDx=0;entryDy=0;exitX=1;exitY=1;exitDx=0;exitDy=0;" edge="1" parent="1" source="-19ChBlsM_4fLCwKDxYv-46" target="-19ChBlsM_4fLCwKDxYv-49">
          <mxGeometry width="50" height="50" relative="1" as="geometry">
            <mxPoint x="400" y="280" as="sourcePoint" />
            <mxPoint x="386" y="257" as="targetPoint" />
          </mxGeometry>
        </mxCell>
        <mxCell id="-19ChBlsM_4fLCwKDxYv-50" value="" style="endArrow=classic;html=1;rounded=0;exitX=1;exitY=0;exitDx=0;exitDy=0;entryX=0.5;entryY=1;entryDx=0;entryDy=0;dashed=1;" edge="1" parent="1" source="-19ChBlsM_4fLCwKDxYv-49" target="-19ChBlsM_4fLCwKDxYv-51">
          <mxGeometry width="50" height="50" relative="1" as="geometry">
            <mxPoint x="280" y="380" as="sourcePoint" />
            <mxPoint x="480" y="230" as="targetPoint" />
          </mxGeometry>
        </mxCell>
        <mxCell id="-19ChBlsM_4fLCwKDxYv-52" value="" style="endArrow=none;html=1;rounded=0;exitX=1.14;exitY=0.507;exitDx=0;exitDy=0;exitPerimeter=0;" edge="1" parent="1" source="-19ChBlsM_4fLCwKDxYv-41" target="-19ChBlsM_4fLCwKDxYv-51">
          <mxGeometry width="50" height="50" relative="1" as="geometry">
            <mxPoint x="366" y="198" as="sourcePoint" />
            <mxPoint x="779" y="200" as="targetPoint" />
          </mxGeometry>
        </mxCell>
        <mxCell id="-19ChBlsM_4fLCwKDxYv-51" value="x" style="text;html=1;align=center;verticalAlign=middle;whiteSpace=wrap;rounded=0;fontSize=30;" vertex="1" parent="1">
          <mxGeometry x="460" y="183" width="60" height="30" as="geometry" />
        </mxCell>
        <mxCell id="-19ChBlsM_4fLCwKDxYv-53" value="" style="ellipse;whiteSpace=wrap;html=1;" vertex="1" parent="1">
          <mxGeometry x="390" y="360" width="40" height="40" as="geometry" />
        </mxCell>
        <mxCell id="-19ChBlsM_4fLCwKDxYv-54" value="" style="endArrow=classic;html=1;rounded=0;entryX=0;entryY=0;entryDx=0;entryDy=0;exitX=0.5;exitY=1;exitDx=0;exitDy=0;" edge="1" parent="1" source="-19ChBlsM_4fLCwKDxYv-46" target="-19ChBlsM_4fLCwKDxYv-53">
          <mxGeometry width="50" height="50" relative="1" as="geometry">
            <mxPoint x="280" y="380" as="sourcePoint" />
            <mxPoint x="330" y="330" as="targetPoint" />
          </mxGeometry>
        </mxCell>
        <mxCell id="-19ChBlsM_4fLCwKDxYv-55" value="" style="endArrow=none;html=1;rounded=0;exitX=1.14;exitY=0.507;exitDx=0;exitDy=0;exitPerimeter=0;" edge="1" parent="1" target="-19ChBlsM_4fLCwKDxYv-49">
          <mxGeometry width="50" height="50" relative="1" as="geometry">
            <mxPoint x="240.00000000000009" y="320.21000000000004" as="sourcePoint" />
            <mxPoint x="500" y="320" as="targetPoint" />
          </mxGeometry>
        </mxCell>
        <mxCell id="-19ChBlsM_4fLCwKDxYv-49" value="" style="ellipse;whiteSpace=wrap;html=1;" vertex="1" parent="1">
          <mxGeometry x="420" y="300" width="40" height="40" as="geometry" />
        </mxCell>
        <mxCell id="-19ChBlsM_4fLCwKDxYv-56" value="" style="endArrow=none;html=1;rounded=0;exitX=1.14;exitY=0.507;exitDx=0;exitDy=0;exitPerimeter=0;" edge="1" parent="1" source="-19ChBlsM_4fLCwKDxYv-43" target="-19ChBlsM_4fLCwKDxYv-46">
          <mxGeometry width="50" height="50" relative="1" as="geometry">
            <mxPoint x="306" y="260" as="sourcePoint" />
            <mxPoint x="550" y="260" as="targetPoint" />
          </mxGeometry>
        </mxCell>
        <mxCell id="-19ChBlsM_4fLCwKDxYv-46" value="" style="ellipse;whiteSpace=wrap;html=1;" vertex="1" parent="1">
          <mxGeometry x="350" y="240" width="40" height="40" as="geometry" />
        </mxCell>
      </root>
    </mxGraphModel>
  </diagram>
</mxfile>
